<?xml version="1.0" encoding="utf-8"?>
<!-- Generator: Adobe Illustrator 21.1.0, SVG Export Plug-In . SVG Version: 6.00 Build 0)  -->
<svg version="1.1" id="Layer_1" xmlns="http://www.w3.org/2000/svg" xmlns:xlink="http://www.w3.org/1999/xlink" x="0px" y="0px"
	 viewBox="0 0 1000 1000" style="enable-background:new 0 0 1000 1000;" xml:space="preserve">
<style type="text/css">
	.st0{fill:#E6E6E6;}
	.st1{fill:#DCDCDC;}
</style>
<g>
	<path class="st0" d="M545.6,61.5L545.6,61.5c1.6-4.9-1.8-10.1-6.9-10.5c-23.4-2-47-2.2-70.6-0.5c-8.5,0.6-17,1.4-25.4,2.5
		c-5.5,0.7-8.7,6.7-6.2,11.7l0,0c1.5,3,4.8,4.8,8.2,4.3c8.2-1,16.4-1.9,24.6-2.4c22.8-1.6,45.5-1.4,68.1,0.5
		C541,67.4,544.4,65.1,545.6,61.5z"/>
	<path class="st0" d="M563.6,935.4c-1.5-3-4.8-4.8-8.2-4.3c-8.2,1-16.4,1.9-24.6,2.4c-22.8,1.6-45.5,1.4-68.1-0.5
		c-3.7-0.3-7.2,2-8.3,5.5l0,0c-1.6,4.9,1.8,10.1,6.9,10.5c23.4,2,47,2.2,70.6,0.5c8.5-0.6,17-1.4,25.4-2.5
		C563,946.3,566.1,940.4,563.6,935.4L563.6,935.4z"/>
	<path class="st0" d="M278.7,881.3c1.2-3.6-0.3-7.4-3.5-9.4c-19.4-11.7-37.9-24.9-55.3-39.7c-44.5-37.5-80.5-83-107.1-135.2
		c-26.6-52.3-42.2-108.2-46.3-166.2c-4-56,2.9-111.6,20.4-165.3c17.5-53.7,44.7-102.7,80.9-145.6c5.3-6.3,10.8-12.5,16.5-18.4
		c2.3-2.5,2.8-6.1,1.3-9.2l0,0c-2.5-5-9.2-5.9-13.1-1.9c-5.8,6.2-11.5,12.5-17,19.1c-37.5,44.6-65.7,95.4-83.9,151
		S46.3,473.8,50.4,532c4.3,60.2,20.4,118.2,48,172.4s65,101.4,111.1,140.3c18.1,15.3,37.3,29,57.4,41.1
		C271.3,888.4,277.1,886.2,278.7,881.3L278.7,881.3z"/>
	<path class="st0" d="M721.3,118.7c-1.2,3.6,0.3,7.4,3.5,9.4c19.4,11.7,37.9,24.9,55.3,39.7c44.5,37.5,80.5,83,107.1,135.2
		c26.6,52.3,42.2,108.2,46.3,166.2c4,56-2.9,111.6-20.4,165.3c-17.5,53.7-44.7,102.7-80.9,145.6c-5.3,6.3-10.8,12.5-16.5,18.4
		c-2.3,2.5-2.8,6.1-1.3,9.2l0,0c2.5,5,9.2,5.9,13.1,1.9c5.8-6.2,11.5-12.5,17-19.1c37.5-44.6,65.7-95.4,83.9-151
		c18.1-55.6,25.2-113.3,21.1-171.4c-4.3-60.2-20.4-118.2-48-172.4c-27.6-54.2-65-101.4-111.1-140.3c-18.1-15.3-37.3-29-57.4-41.1
		C728.7,111.6,722.9,113.8,721.3,118.7L721.3,118.7z"/>
</g>
<g>
	<path class="st0" d="M89.3,234.3L89.3,234.3c-4.1-4.1-10.9-3.3-13.9,1.6c-13.8,22.1-25.8,45.3-36.1,69.6
		c-3.7,8.7-7.1,17.6-10.3,26.4c-2.1,5.8,2.2,12,8.4,12h0c3.8,0,7.1-2.4,8.4-5.9c3.1-8.6,6.4-17.1,10-25.6
		c9.9-23.4,21.5-45.7,34.8-67.1C92.8,241.8,92.2,237.2,89.3,234.3z"/>
	<path class="st0" d="M962.6,656.2c-3.8,0-7.1,2.4-8.4,5.9c-3.1,8.6-6.4,17.1-10,25.6c-9.9,23.4-21.5,45.7-34.8,67.1
		c-2.2,3.5-1.7,8.1,1.3,11l0,0c4.1,4.1,10.9,3.3,13.9-1.6c13.8-22.1,25.8-45.3,36.1-69.6c3.7-8.7,7.1-17.6,10.3-26.4
		C973.1,662.3,968.8,656.2,962.6,656.2L962.6,656.2z"/>
	<path class="st0" d="M765.7,910.7c-2.9-2.9-7.5-3.5-11-1.3c-21.3,13.3-43.7,24.9-67.1,34.8c-59.4,25.1-122.6,37.9-187.7,37.9
		c-65.1,0-128.2-12.7-187.7-37.9c-57.4-24.3-109-59-153.2-103.3c-44.3-44.3-79-95.8-103.3-153.2c-3.6-8.4-6.9-17-10-25.6
		c-1.3-3.5-4.6-5.9-8.4-5.9h0c-6.2,0-10.5,6.2-8.4,12c3.2,8.9,6.6,17.7,10.3,26.4c25.2,59.5,61.2,113,107.2,158.9
		s99.4,82,158.9,107.2C367,986.8,432.5,1000,500,1000s133-13.2,194.6-39.3c24.2-10.2,47.4-22.3,69.6-36.1
		C769.1,921.6,769.8,914.8,765.7,910.7L765.7,910.7z"/>
	<path class="st0" d="M234.3,89.3c2.9,2.9,7.5,3.5,11,1.3c21.3-13.3,43.7-24.9,67.1-34.8C371.8,30.6,434.9,17.9,500,17.9
		c65.1,0,128.2,12.7,187.7,37.9c57.4,24.3,109,59,153.2,103.3c44.3,44.3,79,95.8,103.3,153.2c3.6,8.4,6.9,17,10,25.6
		c1.3,3.5,4.6,5.9,8.4,5.9h0c6.2,0,10.5-6.2,8.4-12c-3.2-8.9-6.6-17.7-10.3-26.4c-25.2-59.5-61.2-113-107.2-158.9
		s-99.4-82-158.9-107.2C633,13.2,567.5,0,500,0S367,13.2,305.4,39.3c-24.2,10.2-47.4,22.3-69.6,36.1
		C230.9,78.4,230.2,85.2,234.3,89.3L234.3,89.3z"/>
</g>
<circle class="st0" cx="500" cy="500" r="400"/>
<path class="st1" d="M751.1,50H248.9c-2.6,0-4.7,2.1-4.7,4.7v63.8v826.8c0,2.6,2.1,4.7,4.7,4.7h502.2c2.6,0,4.7-2.1,4.7-4.7V118.5
	V54.7C755.8,52.1,753.7,50,751.1,50z M746.4,940.5L746.4,940.5H253.6V123.2h492.7V940.5z M746.4,113.8L746.4,113.8H253.6V59.5h492.7
	V113.8z M696.3,86.6c0-2.6,2.1-4.7,4.7-4.7h30.9c2.6,0,4.7,2.1,4.7,4.7c0,2.6-2.1,4.7-4.7,4.7H701C698.4,91.3,696.3,89.2,696.3,86.6
	z M665.5,107.5c11.5,0,21-9.4,21-21c0-11.5-9.4-21-21-21c-11.5,0-21,9.4-21,21C644.5,98.2,653.9,107.5,665.5,107.5z M665.5,75.1
	c6.4,0,11.5,5.1,11.5,11.5s-5.1,11.5-11.5,11.5c-6.4,0-11.5-5.1-11.5-11.5C653.9,80.2,659.1,75.1,665.5,75.1z M396.6,427.9
	c13.2,12.8,28.4,22.9,45.1,30.1c19.1,8.3,39.4,12.5,60.3,12.5c19.3,0,38-3.6,55.8-10.6c0.5-0.1,1.1-0.4,1.5-0.6
	c16.3-6.7,31.1-15.9,44.2-27.7c32-28.8,50.3-69.9,50.3-113c0-83.7-68.1-151.8-151.8-151.8s-151.8,68.1-151.8,151.8
	C350.2,360.2,366.7,399,396.6,427.9z M595.7,425.9L595.7,425.9c-10.3,9-21.9,16.5-34.3,22.1v-72c0-2.6-2.1-4.7-4.7-4.7
	c-2.6,0-4.7,2.1-4.7,4.7v76c-33.3,12.5-70.8,12-103.7-1.4v-74.4c0-2.6-2.1-4.7-4.7-4.7c-2.6,0-4.7,2.1-4.7,4.7v70.2
	c-12.5-6.2-24-14.2-34.3-23.9V325h61.2c2,0,3.8-1.3,4.4-3.2l5.2-15.1c0.5,0.3,1,0.5,1.4,0.7l0,0h0.1l1,0.5l0.4,0.2l0,0
	c0.2,0.1,0.4,0.2,0.5,0.3c0,0,0.1,0,0.1,0.1l1.4,0.6l0.2,0.1h0.1l1.2,0.5c0,0,0.1,0,0.1,0.1c0.9,0.4,1.9,0.6,2.8,1l0,0
	c0,0,0.9,0.3,1,0.3l0,0l0,0c0.1,0,0.1,0,0.2,0c3.6,1.1,6.8,1.7,9.9,2c1.4,0.1,2.8,0.2,4.1,0.2c1.4,0,2.8-0.1,4.1-0.2l0,0l1.1-0.1
	c0.1,0,0.1,0,0.2,0c0.2,0,0.4-0.1,0.5-0.1c0.8-0.1,1.8-0.3,3-0.5c0.1,0,0.1,0,0.1,0l0,0c0,0,0,0,0.1,0c1.7-0.3,3.4-0.7,5-1.3l0,0
	h0.1l0,0c0,0,0.3-0.1,0.4-0.2c0.3-0.1,0.5-0.2,0.5-0.2l0,0l0,0c1.4-0.5,2.9-1,4.2-1.5l0,0l0,0l0,0l0,0l0.2-0.1l0.8-0.4
	c0,0,0.1,0,0.1-0.1l0,0l0,0l0,0c0.2-0.1,1-0.4,1-0.4l0,0c0,0,0.2-0.1,0.3-0.2l0.2-0.1c0,0,0.1-0.1,0.2-0.1l0,0
	c0.2-0.1,0.5-0.3,0.6-0.4c0,0,0,0,0.1,0l0,0l0,0c0.4-0.2,0.6-0.4,1-0.5c0.2-0.1,0.4-0.2,0.5-0.3l5.2,15.1c0.6,1.9,2.4,3.1,4.4,3.1
	h61.2v101.1H595.7z M459.1,262.7v-40.5h82.2v40.5c0,11.9-5.1,23.2-14.2,31c-0.8,0.7-1.7,1.3-2.5,2.1c-1.3,1-2.7,1.9-4.2,2.7
	c0,0,0,0-0.1,0c-0.5,0.3-1.1,0.5-1.6,0.8c-0.2,0.1-0.3,0.2-0.4,0.2c-0.1,0-0.2,0.1-0.2,0.1l0,0c-0.1,0.1-0.2,0.1-0.3,0.1l-1.4,0.6
	l-0.4,0.2c-0.9,0.4-1.9,0.7-2.8,1c-0.5,0.2-0.9,0.3-1.4,0.5l0,0c-0.1,0-0.1,0-0.2,0.1c-1.2,0.4-2.4,0.6-3.8,0.9
	c-0.2,0-0.4,0.1-0.5,0.1c-1.2,0.3-2.3,0.5-3.6,0.5c-2.2,0.2-4.6,0.2-6.8,0c-1.4-0.1-2.6-0.4-4-0.6c-0.8-0.2-1.5-0.4-2.2-0.5
	c-0.9-0.3-1.7-0.4-2.7-0.7c-1.2-0.4-2.2-0.8-3.3-1.2l-0.2-0.1l-1.7-0.8c-0.1-0.1-0.1-0.1-0.2-0.1c-0.8-0.4-1.6-0.7-2.3-1.2
	c-1.4-0.8-2.9-1.7-4.1-2.7c-0.9-0.6-1.7-1.4-2.5-2.1C464.2,285.8,459.1,274.5,459.1,262.7z M502.1,176.2
	c78.6,0,142.4,63.9,142.4,142.5c0,36.6-14.2,71.9-39.3,98.3v-96.8c0-2.6-2.1-4.7-4.7-4.7h-62.5l-5-14.4c0.1-0.1,0.3-0.2,0.4-0.4
	c11.1-9.6,17.5-23.5,17.5-38.2v-45.2c0-2.6-2.1-4.7-4.7-4.7h-91.6c-2.6,0-4.7,2.1-4.7,4.7v45.2c0,14.6,6.4,28.4,17.5,38.1
	c0.1,0.1,0.3,0.3,0.4,0.4l-5,14.4H400c-2.6,0-4.7,2.1-4.7,4.7v92.6c-23-26-35.6-59-35.6-94.1C359.6,240.1,423.5,176.2,502.1,176.2z
	 M311,579.4h62.6c2.6,0,4.7-2.1,4.7-4.7v-62.6c0-2.6-2.1-4.7-4.7-4.7H311c-2.6,0-4.7,2.1-4.7,4.7v62.6
	C306.3,577.3,308.4,579.4,311,579.4z M315.7,516.7H369V570h-53.3V516.7z M311,679h62.6c2.6,0,4.7-2.1,4.7-4.7v-62.7
	c0-2.6-2.1-4.7-4.7-4.7H311c-2.6,0-4.7,2.1-4.7,4.7v62.7C306.3,676.8,308.4,679,311,679z M315.7,616.3H369v53.3h-53.3V616.3z
	 M311,778.5h62.6c2.6,0,4.7-2.1,4.7-4.7v-62.6c0-2.6-2.1-4.7-4.7-4.7H311c-2.6,0-4.7,2.1-4.7,4.7v62.6
	C306.3,776.4,308.4,778.5,311,778.5z M315.7,715.8H369v53.3h-53.3V715.8z M394.7,529.1v28.5c0,2.6,2.1,4.7,4.7,4.7h279.4
	c2.6,0,4.7-2.1,4.7-4.7v-28.5c0-2.6-2.1-4.7-4.7-4.7H399.5C396.9,524.4,394.7,526.5,394.7,529.1z M404.2,533.8h269.9v19.2H404.2
	V533.8z M678.8,623.9H399.5c-2.6,0-4.7,2.1-4.7,4.7v28.6c0,2.6,2.1,4.7,4.7,4.7h279.4c2.6,0,4.7-2.1,4.7-4.7v-28.6
	C683.6,626,681.4,623.9,678.8,623.9z M674.1,652.5H404.2v-19.2h269.9V652.5z M678.8,723.5H399.5c-2.6,0-4.7,2.1-4.7,4.7v28.6
	c0,2.6,2.1,4.7,4.7,4.7h279.4c2.6,0,4.7-2.1,4.7-4.7v-28.6C683.6,725.5,681.4,723.5,678.8,723.5z M674.1,752.1H404.2v-19.2h269.9
	V752.1z M311,878.1h62.6c2.6,0,4.7-2.1,4.7-4.7v-62.6c0-2.6-2.1-4.7-4.7-4.7H311c-2.6,0-4.7,2.1-4.7,4.7v62.6
	C306.3,876,308.4,878.1,311,878.1z M315.7,815.5H369v53.3h-53.3V815.5z M678.8,823H399.5c-2.6,0-4.7,2.1-4.7,4.7v28.5
	c0,2.6,2.1,4.7,4.7,4.7h279.4c2.6,0,4.7-2.1,4.7-4.7v-28.5C683.6,825.2,681.4,823,678.8,823z M674.1,851.6H404.2v-19.2h269.9V851.6z
	"/>
</svg>
